<?xml version="1.0" encoding="UTF-8" standalone="no"?>
<!DOCTYPE svg PUBLIC "-//W3C//DTD SVG 1.1//EN"
 "http://www.w3.org/Graphics/SVG/1.1/DTD/svg11.dtd">
<!-- Generated by graphviz version 2.38.0 (20140413.2041)
 -->
<!-- Title: controllers_diagram Pages: 1 -->
<svg width="377pt" height="232pt"
 viewBox="0.00 0.00 377.00 231.50" xmlns="http://www.w3.org/2000/svg" xmlns:xlink="http://www.w3.org/1999/xlink">
<g id="graph0" class="graph" transform="scale(1 1) rotate(0) translate(67.5 115.5)">
<title>controllers_diagram</title>
<polygon fill="white" stroke="none" points="-67.5,116 -67.5,-115.5 309.5,-115.5 309.5,116 -67.5,116"/>
<!-- _diagram_info -->
<g id="node1" class="node"><title>_diagram_info</title>
<text text-anchor="start" x="104.5" y="32.4" font-family="Times,serif" font-size="13.00">Controllers diagram</text>
<text text-anchor="start" x="104.5" y="46.4" font-family="Times,serif" font-size="13.00">Date: May 03 2015 &#45; 14:58</text>
<text text-anchor="start" x="104.5" y="60.4" font-family="Times,serif" font-size="13.00">Migration version: 20150501071739</text>
<text text-anchor="start" x="104.5" y="74.4" font-family="Times,serif" font-size="13.00">Generated by RailRoady 1.3.0</text>
<text text-anchor="start" x="104.5" y="88.4" font-family="Times,serif" font-size="13.00">http://railroady.prestonlee.com</text>
</g>
<!-- RunsController -->
<g id="node2" class="node"><title>RunsController</title>
<path fill="none" stroke="black" d="M-51.5,111.5C-51.5,111.5 47.5,111.5 47.5,111.5 53.5,111.5 59.5,105.5 59.5,99.5 59.5,99.5 59.5,-89.5 59.5,-89.5 59.5,-95.5 53.5,-101.5 47.5,-101.5 47.5,-101.5 -51.5,-101.5 -51.5,-101.5 -57.5,-101.5 -63.5,-95.5 -63.5,-89.5 -63.5,-89.5 -63.5,99.5 -63.5,99.5 -63.5,105.5 -57.5,111.5 -51.5,111.5"/>
<text text-anchor="middle" x="-2" y="-86.3" font-family="Times,serif" font-size="14.00">RunsController</text>
<polyline fill="none" stroke="black" points="-63.5,-78.5 59.5,-78.5 "/>
<text text-anchor="start" x="-55.5" y="-63.3" font-family="Times,serif" font-size="14.00">create</text>
<text text-anchor="start" x="-55.5" y="-48.3" font-family="Times,serif" font-size="14.00">index</text>
<text text-anchor="start" x="-55.5" y="-33.3" font-family="Times,serif" font-size="14.00">new</text>
<text text-anchor="start" x="-55.5" y="-18.3" font-family="Times,serif" font-size="14.00">rules</text>
<text text-anchor="start" x="-55.5" y="-3.3" font-family="Times,serif" font-size="14.00">show</text>
<text text-anchor="start" x="-55.5" y="11.7" font-family="Times,serif" font-size="14.00">test</text>
<polyline fill="none" stroke="black" points="-63.5,19.5 59.5,19.5 "/>
<polyline fill="none" stroke="black" points="-63.5,43.5 59.5,43.5 "/>
<text text-anchor="start" x="-55.5" y="58.7" font-family="Times,serif" font-size="14.00">_layout</text>
<text text-anchor="start" x="-55.5" y="73.7" font-family="Times,serif" font-size="14.00">run_params</text>
<text text-anchor="start" x="-55.5" y="88.7" font-family="Times,serif" font-size="14.00">set_run</text>
<text text-anchor="start" x="-55.5" y="103.7" font-family="Times,serif" font-size="14.00">set_run_by_run_id</text>
</g>
<!-- ApplicationController -->
<g id="node3" class="node"><title>ApplicationController</title>
<path fill="none" stroke="black" d="M108.5,-17C108.5,-17 221.5,-17 221.5,-17 227.5,-17 233.5,-23 233.5,-29 233.5,-29 233.5,-99 233.5,-99 233.5,-105 227.5,-111 221.5,-111 221.5,-111 108.5,-111 108.5,-111 102.5,-111 96.5,-105 96.5,-99 96.5,-99 96.5,-29 96.5,-29 96.5,-23 102.5,-17 108.5,-17"/>
<text text-anchor="middle" x="165" y="-95.8" font-family="Times,serif" font-size="14.00">ApplicationController</text>
<polyline fill="none" stroke="black" points="96.5,-88 233.5,-88 "/>
<polyline fill="none" stroke="black" points="96.5,-64 233.5,-64 "/>
<polyline fill="none" stroke="black" points="96.5,-40 233.5,-40 "/>
<text text-anchor="start" x="104.5" y="-24.8" font-family="Times,serif" font-size="14.00">_layout</text>
</g>
</g>
</svg>
