<?xml version="1.0" encoding="UTF-8" standalone="no"?>
<!DOCTYPE svg PUBLIC "-//W3C//DTD SVG 1.1//EN"
 "http://www.w3.org/Graphics/SVG/1.1/DTD/svg11.dtd">
<!-- Generated by graphviz version 2.38.0 (20140413.2041)
 -->
<!-- Title: models_diagram Pages: 1 -->
<svg width="368pt" height="130pt"
 viewBox="0.00 0.00 367.50 130.00" xmlns="http://www.w3.org/2000/svg" xmlns:xlink="http://www.w3.org/1999/xlink">
<g id="graph0" class="graph" transform="scale(1 1) rotate(0) translate(4 126)">
<title>models_diagram</title>
<polygon fill="white" stroke="none" points="-4,4 -4,-126 363.5,-126 363.5,4 -4,4"/>
<!-- _diagram_info -->
<g id="node1" class="node"><title>_diagram_info</title>
<text text-anchor="start" x="8" y="-85.6" font-family="Times,serif" font-size="13.00">Models diagram</text>
<text text-anchor="start" x="8" y="-71.6" font-family="Times,serif" font-size="13.00">Date: May 03 2015 &#45; 14:58</text>
<text text-anchor="start" x="8" y="-57.6" font-family="Times,serif" font-size="13.00">Migration version: 20150501071739</text>
<text text-anchor="start" x="8" y="-43.6" font-family="Times,serif" font-size="13.00">Generated by RailRoady 1.3.0</text>
<text text-anchor="start" x="8" y="-29.6" font-family="Times,serif" font-size="13.00">http://railroady.prestonlee.com</text>
</g>
<!-- Run -->
<g id="node2" class="node"><title>Run</title>
<path fill="none" stroke="black" d="M239.5,-0.5C239.5,-0.5 347.5,-0.5 347.5,-0.5 353.5,-0.5 359.5,-6.5 359.5,-12.5 359.5,-12.5 359.5,-109.5 359.5,-109.5 359.5,-115.5 353.5,-121.5 347.5,-121.5 347.5,-121.5 239.5,-121.5 239.5,-121.5 233.5,-121.5 227.5,-115.5 227.5,-109.5 227.5,-109.5 227.5,-12.5 227.5,-12.5 227.5,-6.5 233.5,-0.5 239.5,-0.5"/>
<text text-anchor="middle" x="293.5" y="-106.3" font-family="Times,serif" font-size="14.00">Run</text>
<polyline fill="none" stroke="black" points="227.5,-98.5 359.5,-98.5 "/>
<text text-anchor="start" x="235.5" y="-83.3" font-family="Times,serif" font-size="14.00">id :integer</text>
<text text-anchor="start" x="235.5" y="-68.3" font-family="Times,serif" font-size="14.00">name :string</text>
<text text-anchor="start" x="235.5" y="-53.3" font-family="Times,serif" font-size="14.00">reduct_set :string</text>
<text text-anchor="start" x="235.5" y="-38.3" font-family="Times,serif" font-size="14.00">rules :text</text>
<text text-anchor="start" x="235.5" y="-23.3" font-family="Times,serif" font-size="14.00">created_at :datetime</text>
<text text-anchor="start" x="235.5" y="-8.3" font-family="Times,serif" font-size="14.00">updated_at :datetime</text>
</g>
</g>
</svg>
